<?xml version="1.0" standalone="no"?>
<!DOCTYPE svg PUBLIC "-//W3C//DTD SVG 20010904//EN"
 "http://www.w3.org/TR/2001/REC-SVG-20010904/DTD/svg10.dtd">
<svg version="1.0" xmlns="http://www.w3.org/2000/svg"
 width="805.000000pt" height="805.000000pt" viewBox="0 0 805.000000 805.000000"
 preserveAspectRatio="xMidYMid meet">
<metadata>
Created by potrace 1.16, written by Peter Selinger 2001-2019
</metadata>
<g transform="translate(0.000000,805.000000) scale(0.100000,-0.100000)"
fill="#ffffff" stroke="none">
<path d="M3780 7479 c-452 -39 -865 -153 -1265 -349 -520 -255 -938 -606
-1283 -1077 -221 -301 -429 -731 -527 -1089 -178 -649 -178 -1229 0 -1878 98
-358 306 -788 527 -1089 227 -310 501 -582 786 -781 46 -32 84 -57 86 -55 2 2
9 134 15 293 16 381 37 652 57 733 43 171 96 230 324 358 268 151 850 499 920
551 89 66 210 190 238 244 38 72 54 290 31 416 -28 159 -79 267 -177 375 -30
33 -127 122 -216 197 -253 217 -366 351 -455 543 -91 194 -116 309 -116 529 0
153 3 185 23 255 66 227 213 430 397 548 77 49 261 133 376 172 120 41 340 68
499 62 303 -11 431 -74 632 -309 107 -125 145 -191 162 -282 25 -126 37 -143
203 -296 71 -66 125 -165 183 -339 78 -236 116 -458 107 -636 -11 -218 -43
-267 -267 -401 -168 -100 -243 -255 -220 -456 22 -192 114 -363 280 -522 103
-99 201 -162 394 -258 361 -179 424 -253 510 -594 63 -251 101 -525 117 -841
5 -120 12 -219 13 -221 6 -5 125 89 218 172 468 418 848 1030 1013 1632 178
649 178 1229 0 1878 -51 187 -125 378 -225 581 -255 520 -606 938 -1077 1283
-217 159 -563 344 -825 442 -462 171 -1002 248 -1458 209z"/>
<path d="M4266 5708 c-61 -87 53 -288 164 -288 42 0 57 13 66 58 7 36 -17 122
-48 167 -54 79 -148 112 -182 63z"/>
</g>
</svg>
