<?xml version="1.0" encoding="utf-8"?>
<svg version="1.1" id="Layer_1" xmlns="http://www.w3.org/2000/svg" xmlns:xlink="http://www.w3.org/1999/xlink"
    x="0px" y="0px" width="38.418px" height="122.879px" viewBox="0 0 38.418 122.879"
    enable-background="new 0 0 38.418 122.879" xml:space="preserve">
    <g>
        <path d="M8.747,98.574h20.829c1.555,0,2.814,1.26,2.814,2.814v18.676c0,1.555-1.26,2.814-2.814,2.814H8.747 c-1.555,0-2.815-1.26-2.815-2.814v-18.676C5.932,99.834,7.192,98.574,8.747,98.574L8.747,98.574z M26.761,104.205H11.562v13.045 h15.199V104.205L26.761,104.205z M29.576,90.494H8.747c-1.53,0-2.774-1.221-2.814-2.74c-0.22-2.938-0.458-5.717-0.712-8.34 c-0.261-2.695-0.576-5.605-0.943-8.721c-0.321-2.727-0.655-5.684-0.999-8.82c-0.307-2.798-0.619-5.742-0.935-8.794 c-0.328-3.172-0.611-6.126-0.845-8.853c-0.243-2.824-0.468-5.764-0.675-8.827c-0.063-0.93-0.172-2.213-0.287-3.543 C-0.227,22.927-1.174,11.862,5.467,5.22l0.002-0.002C8.948,1.74,14.104,0,19.217,0s10.268,1.74,13.747,5.218l0.002,0.002 c6.687,6.686,5.677,17.866,4.867,26.827c-0.088,0.974-0.173,1.915-0.279,3.362c-0.193,2.62-0.437,5.569-0.728,8.827 c-0.28,3.144-0.563,6.085-0.849,8.842c-0.328,3.167-0.635,6.084-0.925,8.794c-0.313,2.93-0.631,5.861-0.953,8.797 c-0.338,3.078-0.648,5.998-0.92,8.701c-0.249,2.479-0.515,5.299-0.8,8.549c-0.126,1.469-1.358,2.574-2.804,2.572V90.494 L29.576,90.494z M11.346,84.863h15.659c0.17-1.822,0.367-3.848,0.588-6.043c0.309-3.068,0.615-5.967,0.92-8.744 c0.322-2.936,0.641-5.867,0.954-8.797c0.336-3.148,0.646-6.085,0.924-8.772c0.322-3.116,0.606-6.038,0.849-8.754 c0.232-2.601,0.468-5.506,0.706-8.739c0.053-0.722,0.175-2.072,0.301-3.472c0.704-7.785,1.581-17.499-3.262-22.341l-0.001-0.001 c-2.38-2.379-6.052-3.569-9.767-3.569c-3.715,0-7.388,1.189-9.767,3.569L9.448,9.201c-4.792,4.792-3.967,14.422-3.301,22.193 c0.1,1.165,0.196,2.288,0.287,3.631c0.188,2.79,0.414,5.704,0.674,8.739c0.27,3.133,0.544,6.042,0.824,8.743 c0.29,2.802,0.6,5.712,0.935,8.772c0.299,2.725,0.629,5.631,0.999,8.775c0.327,2.777,0.642,5.721,0.943,8.832 C11.01,80.977,11.189,82.969,11.346,84.863L11.346,84.863z"/>
    </g>
</svg>
